<svg id="Group_53" data-name="Group 53" xmlns="http://www.w3.org/2000/svg" xmlns:xlink="http://www.w3.org/1999/xlink" width="320" height="111.788" viewBox="0 0 320 111.788">
  <defs>
    <clipPath id="clip-path">
      <rect id="Rectangle_117" data-name="Rectangle 117" width="320" height="111.788" fill="none"/>
    </clipPath>
  </defs>
  <g id="Group_52" data-name="Group 52" clip-path="url(#clip-path)">
    <path id="Path_89" data-name="Path 89" d="M54.254,87.652l12.614-9.737c13.72-10.733,20.359-16.929,20.359-29.985v-.222a23.405,23.405,0,0,0-4.235-13.93c-7.481-10.362-20.712-10.048-22.431-9.97a28.857,28.857,0,0,0-17.434,7.2,27.5,27.5,0,0,0-16.461-7.2c-1.113-.074-14.746-.676-22.431,9.97A23.405,23.405,0,0,0,0,47.709v.222C0,60.987,6.638,67.183,20.359,77.916L32.65,87.4v14.964H88V87.652ZM64.776,60.267a87.877,87.877,0,0,1-8.309,7.469L43.613,78.273,30.759,67.736c-9.737-7.967-13.388-12.171-13.388-18.589,0-6.638,4.205-10.068,10.4-10.068,6.085,0,10.068,3.319,15.822,10.4l.021-.04.017.04c5.754-7.081,9.737-10.4,15.822-10.4,6.2,0,10.4,3.43,10.4,10.068,0,4.09-1.483,7.281-5.079,11.12" transform="translate(0 -14.179)" fill="#e10a14"/>
    <path id="Path_90" data-name="Path 90" d="M247.139,53.673l7.208-12.014h17.8L256.305,65.42,272.5,89.8H254.348l-7.475-12.548L239.308,89.8h-17.8l16.2-24.205-15.84-23.939H240.02Z" transform="translate(-132.078 -24.84)" fill="#e10a14"/>
    <path id="Path_91" data-name="Path 91" d="M352.212,0h17.531V12.459H352.212Zm.356,16.819h16.819V64.964H352.568Z" transform="translate(-210.01)" fill="#e10a14"/>
    <path id="Path_92" data-name="Path 92" d="M406.533,97.125l5.429-11.213a33.471,33.471,0,0,0,16.819,4.539c8.454,0,12.548-4.094,12.548-11.836V76.746c-3.471,3.915-7.742,7.209-14.772,7.209-11.836,0-21.447-8.543-21.447-22.337V61.44c0-13.883,9.789-22.426,20.824-22.426,7.386,0,11.569,2.937,15.129,6.763v-5.7H457.97V76.657c0,8.721-2.047,15.129-6.23,19.222-4.36,4.539-11.123,6.763-21.18,6.763a51.723,51.723,0,0,1-24.027-5.518m34.885-35.507V61.44c0-5.339-4.183-9.344-9.878-9.344-5.784,0-9.878,4-9.878,9.433v.178c0,5.339,4.094,9.255,9.878,9.255s9.878-4,9.878-9.344" transform="translate(-241.551 -23.263)" fill="#e10a14"/>
    <path id="Path_93" data-name="Path 93" d="M545.069,64.376V64.2c0-13.971,10.056-25.184,24.295-25.184,16.553,0,24.206,12.192,24.206,26.341,0,1.068,0,2.314-.089,3.471H561.266c1.335,5.339,5.072,7.92,10.412,7.92,4.182,0,7.208-1.424,10.679-4.894l9.345,7.742c-4.628,5.962-11.213,9.789-20.824,9.789-15.129,0-25.808-10.145-25.808-25.007m32.749-4.182c-.623-5.339-3.827-8.721-8.454-8.721-4.538,0-7.386,3.382-8.365,8.721Z" transform="translate(-325.003 -23.263)" fill="#e10a14"/>
    <path id="Path_94" data-name="Path 94" d="M674.448,40.081h16.909v6.763c3.115-4,7.564-7.831,14.416-7.831,10.323,0,16.374,6.675,16.374,17.71v31.5H705.328V62.151c0-5.339-2.67-8.187-6.852-8.187s-7.119,2.848-7.119,8.187V88.226H674.448Z" transform="translate(-402.147 -23.262)" fill="#e10a14"/>
    <path id="Path_95" data-name="Path 95" d="M235.686,187.954h3.636v1.378a3.8,3.8,0,0,1,3.139-1.608c2.45,0,4.593,2.048,4.593,5.359v.038c0,3.369-2.124,5.417-4.574,5.417a3.918,3.918,0,0,1-3.158-1.493v4.325h-3.636Zm7.809,5.187V193.1a2.216,2.216,0,0,0-2.124-2.354,2.192,2.192,0,0,0-2.124,2.354v.038a2.136,2.136,0,1,0,4.249,0" transform="translate(-140.53 -111.932)" fill="#1d1d1b"/>
    <path id="Path_96" data-name="Path 96" d="M264.842,193.179v-.038a5.205,5.205,0,0,1,5.225-5.417c3.56,0,5.206,2.622,5.206,5.665,0,.229,0,.5-.019.747h-6.928a2.107,2.107,0,0,0,2.239,1.7,3,3,0,0,0,2.3-1.053l2.01,1.665a5.335,5.335,0,0,1-4.479,2.105,5.221,5.221,0,0,1-5.55-5.378m7.043-.9a1.866,1.866,0,0,0-1.818-1.876c-.976,0-1.589.728-1.8,1.876Z" transform="translate(-157.915 -111.932)" fill="#1d1d1b"/>
    <path id="Path_97" data-name="Path 97" d="M292.671,187.954h3.636v1.455a3.84,3.84,0,0,1,3.1-1.684c2.22,0,3.521,1.435,3.521,3.808v6.776h-3.617V192.7c0-1.148-.574-1.76-1.474-1.76s-1.531.612-1.531,1.76v5.608h-3.636Z" transform="translate(-174.508 -111.932)" fill="#1d1d1b"/>
    <path id="Path_98" data-name="Path 98" d="M320.634,191.56v-4.23h-1.225v-2.909h1.225V181.8h3.617v2.622h2.412v2.909h-2.412v3.522c0,.747.325,1.034,1,1.034a3.186,3.186,0,0,0,1.378-.345v2.833a5.24,5.24,0,0,1-2.526.612c-2.2,0-3.464-.957-3.464-3.426" transform="translate(-190.451 -108.4)" fill="#1d1d1b"/>
    <path id="Path_99" data-name="Path 99" d="M339.367,188.032H343v2.086a3.175,3.175,0,0,1,3.273-2.259v3.828h-.306c-1.914,0-2.966,1.072-2.966,3.464v3.234h-3.636Z" transform="translate(-202.351 -112.011)" fill="#1d1d1b"/>
    <path id="Path_100" data-name="Path 100" d="M357.572,195.05v-6.756h3.636V193.9c0,1.149.574,1.742,1.474,1.742s1.531-.593,1.531-1.742v-5.608h3.617v10.354h-3.617v-1.435a3.8,3.8,0,0,1-3.1,1.665c-2.22,0-3.54-1.454-3.54-3.827" transform="translate(-213.206 -112.272)" fill="#1d1d1b"/>
    <path id="Path_101" data-name="Path 101" d="M238.406,232.257h-4V229h11.732v3.254h-4.019V242.4h-3.713Z" transform="translate(-139.767 -136.546)" fill="#1d1d1b"/>
    <path id="Path_102" data-name="Path 102" d="M264.889,227.581h3.771v2.68h-3.771Zm.077,3.618h3.617v10.354h-3.617Z" transform="translate(-157.943 -135.698)" fill="#1d1d1b"/>
    <path id="Path_103" data-name="Path 103" d="M277.216,236.2h3.636v1.416a3.8,3.8,0,0,1,3.081-1.646,3.174,3.174,0,0,1,2.986,1.684,4.271,4.271,0,0,1,3.464-1.684c2.22,0,3.541,1.359,3.541,3.79v6.795h-3.636v-5.627c0-1.149-.555-1.741-1.416-1.741s-1.493.593-1.493,1.741v5.627h-3.617v-5.627c0-1.149-.574-1.741-1.435-1.741s-1.474.593-1.474,1.741v5.627h-3.636Z" transform="translate(-165.293 -140.7)" fill="#1d1d1b"/>
    <path id="Path_104" data-name="Path 104" d="M321.4,227.581h3.771v2.68H321.4Zm.077,3.618h3.617v10.354h-3.617Z" transform="translate(-191.638 -135.698)" fill="#1d1d1b"/>
    <path id="Path_105" data-name="Path 105" d="M331.83,245.263l1.359-2.182a6.726,6.726,0,0,0,3.541,1.187c.632,0,.938-.192.938-.555v-.038c0-.44-.593-.594-1.684-.9-2.048-.516-3.675-1.225-3.675-3.292v-.038c0-2.2,1.78-3.426,4.153-3.426a8.1,8.1,0,0,1,4.268,1.206l-1.244,2.3a6.809,6.809,0,0,0-3.062-.976c-.555,0-.842.211-.842.517v.038c0,.4.612.593,1.684.919,2.048.555,3.674,1.283,3.674,3.292v.038c0,2.278-1.7,3.464-4.23,3.464a8.138,8.138,0,0,1-4.88-1.55m3.062,6.163c1.129-.1,1.531-.5,1.474-1.244h-1.3v-2.6h3.1V249.7c0,2.01-1.148,2.737-3.12,2.814Z" transform="translate(-197.857 -140.729)" fill="#1d1d1b"/>
    <path id="Path_106" data-name="Path 106" d="M355.2,241.426v-.038a5.722,5.722,0,0,1,11.426-.038v.038a5.515,5.515,0,0,1-5.742,5.416,5.445,5.445,0,0,1-5.684-5.378m7.9,0v-.038a2.253,2.253,0,0,0-2.221-2.354,2.163,2.163,0,0,0-2.162,2.316v.038a2.244,2.244,0,0,0,2.2,2.335,2.184,2.184,0,0,0,2.182-2.3" transform="translate(-211.793 -140.7)" fill="#1d1d1b"/>
    <path id="Path_107" data-name="Path 107" d="M384.167,243.7v-.038c0-2.163,1.627-3.254,4.058-3.254a7.335,7.335,0,0,1,2.488.4v-.173c0-1.09-.67-1.7-2.067-1.7a7.46,7.46,0,0,0-2.871.574l-.746-2.546a10.4,10.4,0,0,1,4.192-.8,5.318,5.318,0,0,1,3.943,1.263,4.326,4.326,0,0,1,1.11,3.292v5.952h-3.579v-1.09a3.991,3.991,0,0,1-3.062,1.32,3.138,3.138,0,0,1-3.464-3.2m6.584-.784v-.479a4.008,4.008,0,0,0-1.436-.268c-1.072,0-1.665.5-1.665,1.282v.039a1.141,1.141,0,0,0,1.282,1.129,1.66,1.66,0,0,0,1.818-1.7" transform="translate(-229.064 -140.814)" fill="#1d1d1b"/>
    <path id="Path_108" data-name="Path 108" d="M411.9,236.279h3.636v2.086a3.175,3.175,0,0,1,3.272-2.259v3.828H418.5c-1.914,0-2.966,1.072-2.966,3.464v3.235H411.9Z" transform="translate(-245.601 -140.779)" fill="#1d1d1b"/>
    <path id="Path_109" data-name="Path 109" d="M427.877,243.7v-.038c0-2.163,1.627-3.254,4.058-3.254a7.335,7.335,0,0,1,2.488.4v-.173c0-1.09-.67-1.7-2.067-1.7a7.458,7.458,0,0,0-2.871.574l-.747-2.546a10.4,10.4,0,0,1,4.192-.8,5.319,5.319,0,0,1,3.943,1.263,4.327,4.327,0,0,1,1.11,3.292v5.952H434.4v-1.09a3.99,3.99,0,0,1-3.062,1.32,3.139,3.139,0,0,1-3.464-3.2m6.584-.784v-.479a4.009,4.009,0,0,0-1.436-.268c-1.072,0-1.665.5-1.665,1.282v.039a1.141,1.141,0,0,0,1.282,1.129,1.66,1.66,0,0,0,1.818-1.7" transform="translate(-255.126 -140.814)" fill="#1d1d1b"/>
  </g>
</svg>
