<?xml version="1.0" encoding="utf-8"?>
<!-- Generator: Adobe Illustrator 25.4.0, SVG Export Plug-In . SVG Version: 6.00 Build 0)  -->
<svg version="1.1" id="Layer_1" xmlns="http://www.w3.org/2000/svg" xmlns:xlink="http://www.w3.org/1999/xlink" x="0px" y="0px"
	 viewBox="0 0 320 111" style="enable-background:new 0 0 320 111;" xml:space="preserve">
<style type="text/css">
	.st0{fill:#E10A14;}
	.st1{fill:#1E1E1E;}
</style>
<g>
	<g>
		<path class="st0" d="M115.31,36.25l7.18-11.97h17.73l-15.78,23.67l16.14,24.29h-18.09l-7.45-12.5l-7.54,12.5H89.78l16.14-24.12
			L90.13,24.28h18.09L115.31,36.25z"/>
		<path class="st0" d="M142.71,24.28h16.76v47.97h-16.76V24.28z"/>
		<path class="st0" d="M165.05,81.12l5.41-11.17c5.23,2.84,10.29,4.52,16.76,4.52c8.42,0,12.5-4.08,12.5-11.79v-1.86
			c-3.46,3.9-7.71,7.18-14.72,7.18c-11.79,0-21.37-8.51-21.37-22.25v-0.18c0-13.83,9.75-22.34,20.75-22.34
			c7.36,0,11.53,2.93,15.07,6.74v-5.67h16.85v36.44c0,8.69-2.04,15.07-6.21,19.15c-4.34,4.52-11.08,6.74-21.1,6.74
			C179.77,86.61,172.05,84.66,165.05,81.12z M199.81,45.74v-0.18c0-5.32-4.17-9.31-9.84-9.31c-5.76,0-9.84,3.99-9.84,9.4v0.18
			c0,5.32,4.08,9.22,9.84,9.22C195.73,55.05,199.81,51.06,199.81,45.74z"/>
		<path class="st0" d="M219.93,48.49v-0.18c0-13.92,10.02-25.09,24.21-25.09c16.49,0,24.12,12.15,24.12,26.24
			c0,1.06,0,2.31-0.09,3.46h-32.1c1.33,5.32,5.05,7.89,10.37,7.89c4.17,0,7.18-1.42,10.64-4.88l9.31,7.71
			c-4.61,5.94-11.17,9.75-20.75,9.75C230.57,73.4,219.93,63.29,219.93,48.49z M252.56,44.32c-0.62-5.32-3.81-8.69-8.42-8.69
			c-4.52,0-7.36,3.37-8.33,8.69H252.56z"/>
		<path class="st0" d="M271.98,24.28h16.85v6.74c3.1-3.99,7.54-7.8,14.36-7.8c10.29,0,16.31,6.65,16.31,17.64v31.39h-16.76V46.27
			c0-5.32-2.66-8.16-6.83-8.16c-4.17,0-7.09,2.84-7.09,8.16v25.98h-16.85V24.28z"/>
	</g>
	<path class="st0" d="M151.09,2.07L151.09,2.07c-5.25,0-9.5,4.26-9.5,9.5v0c0,5.25,4.26,9.5,9.5,9.5h0c5.25,0,9.5-4.26,9.5-9.5v0
		C160.59,6.32,156.33,2.07,151.09,2.07z"/>
	<path class="st0" d="M44.53,42.58"/>
	<g>
		<path class="st0" d="M44.51,38.27"/>
	</g>
	<path class="st0" d="M59.96,77.56c6.98-4.81,16.8-12.37,22.37-20.19c4.45-6.24,6.46-12.43,6.16-18.9
		c-0.3-6.51-2.86-12.59-7.21-17.13c-7.08-7.4-16.02-8.11-18.5-8.21c-10.03-0.39-16.87,4.9-18.55,6.27c-1.83-1.54-7.62-6-16.2-6.33
		c-1.44-0.06-12.19-0.29-20.29,8.27c-6.37,6.74-7.09,14.68-7.21,17.13c-0.3,6.48,1.71,12.66,6.16,18.91
		c3.26,4.57,7.96,9.05,12.7,12.94c4.42,3.63,9.11,6.91,13.99,9.89l0.74,0.45v12.35h54.8V77.56H59.96z M19.96,48.43
		c-2.25-3.25-3.36-6.13-3.22-9.24c0.04-0.95,0.25-4.38,2.86-7.19c2.91-3.13,6.87-3.4,8.15-3.49c6.24-0.43,13.68,4.68,16.75,11.03
		c3.07-6.35,10.51-11.46,16.75-11.03c1.28,0.09,5.24,0.36,8.15,3.49c2.61,2.81,2.82,6.24,2.86,7.19c0.14,3.11-0.97,5.99-3.22,9.24
		c-6.77,9.77-23.74,21.59-24.54,21.59C43.7,70.02,26.73,58.2,19.96,48.43z"/>
	<g>
		<path class="st1" d="M106.5,85.76c0,3.11-2.15,5.07-4.81,5.07c-1.14,0-2.06-0.34-2.73-1.03v4.38h-3.44V80.86h3.28v0.98
			c0.65-0.78,1.61-1.14,2.9-1.14C104.35,80.69,106.5,82.65,106.5,85.76z M103.03,85.76c0-1.48-0.9-2.34-2.06-2.34
			c-1.16,0-2.06,0.85-2.06,2.34c0,1.48,0.91,2.33,2.06,2.33C102.12,88.1,103.03,87.25,103.03,85.76z"/>
		<path class="st1" d="M117.71,86.63h-7.13c0.29,1,1.14,1.57,2.41,1.57c0.96,0,1.59-0.27,2.26-0.85l1.81,1.88
			c-0.94,1.05-2.32,1.59-4.18,1.59c-3.49,0-5.76-2.15-5.76-5.09c0-2.95,2.3-5.05,5.39-5.05c2.9,0,5.25,1.85,5.25,5.09
			C117.76,86.03,117.72,86.36,117.71,86.63z M110.52,84.82h4.02c-0.18-1.03-0.94-1.68-2.01-1.68S110.72,83.79,110.52,84.82z"/>
		<path class="st1" d="M129.44,85.06v5.61H126v-5.05c0-1.41-0.62-2.01-1.61-2.01c-1.1,0-1.95,0.69-1.95,2.32v4.74h-3.44v-9.81h3.28
			v1.07c0.78-0.81,1.88-1.23,3.11-1.23C127.68,80.69,129.44,82.02,129.44,85.06z"/>
		<path class="st1" d="M138,90.27c-0.6,0.38-1.48,0.56-2.39,0.56c-2.52,0-3.98-1.23-3.98-3.75v-3.29h-1.43v-2.57h1.43v-2.55h3.44
			v2.55h2.24v2.57h-2.24v3.26c0,0.72,0.42,1.12,1.03,1.12c0.38,0,0.76-0.11,1.05-0.31L138,90.27z"/>
		<path class="st1" d="M145.53,80.69v3.1c-0.31-0.04-0.52-0.05-0.78-0.05c-1.39,0-2.35,0.71-2.35,2.43v4.51h-3.44v-9.81h3.28v1.18
			C142.94,81.15,144.08,80.69,145.53,80.69z"/>
		<path class="st1" d="M156.93,80.86v9.81h-3.28v-1.05c-0.74,0.81-1.79,1.21-2.91,1.21c-2.41,0-4.16-1.38-4.16-4.49v-5.48h3.44v4.92
			c0,1.52,0.6,2.12,1.63,2.12c1.01,0,1.85-0.67,1.85-2.32v-4.72H156.93z"/>
	</g>
	<g>
		<path class="st1" d="M107.3,103.35c0.41,0.54,0.62,1.19,0.62,1.95c0,1.11-0.45,1.97-1.34,2.57c-0.89,0.6-2.18,0.91-3.87,0.91
			h-6.84V96.1h6.48c1.62,0,2.85,0.3,3.69,0.9c0.84,0.6,1.27,1.4,1.27,2.42c0,0.6-0.15,1.14-0.44,1.62c-0.3,0.48-0.71,0.85-1.26,1.13
			C106.33,102.42,106.89,102.81,107.3,103.35z M99.41,98.69v2.44h2.46c1.21,0,1.81-0.41,1.81-1.23c0-0.81-0.6-1.21-1.81-1.21H99.41z
			 M104.3,104.9c0-0.86-0.63-1.29-1.88-1.29h-3v2.57h3C103.67,106.18,104.3,105.75,104.3,104.9z"/>
		<path class="st1" d="M117.17,99.91c0.86,0.74,1.29,1.88,1.29,3.41v5.45h-3.2v-1.27c-0.49,0.95-1.46,1.43-2.9,1.43
			c-0.76,0-1.42-0.13-1.97-0.4c-0.56-0.27-0.97-0.62-1.26-1.08c-0.28-0.45-0.43-0.97-0.43-1.55c0-0.93,0.36-1.65,1.07-2.16
			c0.71-0.51,1.81-0.77,3.29-0.77h1.96c-0.06-1.04-0.75-1.56-2.08-1.56c-0.47,0-0.95,0.08-1.43,0.23c-0.48,0.15-0.89,0.36-1.23,0.62
			l-1.16-2.34c0.54-0.36,1.2-0.64,1.98-0.84c0.78-0.2,1.56-0.3,2.34-0.3C115.07,98.8,116.31,99.17,117.17,99.91z M114.36,106.47
			c0.3-0.19,0.52-0.48,0.65-0.85v-0.85h-1.48c-1,0-1.5,0.33-1.5,1c0,0.3,0.11,0.54,0.34,0.72c0.23,0.18,0.54,0.27,0.94,0.27
			C113.71,106.76,114.06,106.66,114.36,106.47z"/>
		<path class="st1" d="M122.51,108.28c-0.86-0.43-1.52-1.04-2-1.81c-0.48-0.77-0.72-1.65-0.72-2.62c0-0.98,0.24-1.85,0.72-2.62
			c0.48-0.77,1.14-1.36,2-1.79c0.86-0.43,1.83-0.64,2.91-0.64c1.11,0,2.07,0.24,2.88,0.71c0.81,0.48,1.38,1.14,1.72,1.98l-2.66,1.36
			c-0.45-0.88-1.1-1.32-1.95-1.32c-0.62,0-1.13,0.21-1.53,0.62c-0.4,0.41-0.61,0.98-0.61,1.7c0,0.74,0.2,1.31,0.61,1.73
			c0.4,0.42,0.91,0.62,1.53,0.62c0.86,0,1.51-0.44,1.95-1.32l2.66,1.36c-0.34,0.84-0.91,1.51-1.72,1.98
			c-0.81,0.48-1.77,0.71-2.88,0.71C124.34,108.93,123.37,108.72,122.51,108.28z"/>
		<path class="st1" d="M138.87,99.91c0.86,0.74,1.29,1.88,1.29,3.41v5.45h-3.2v-1.27c-0.49,0.95-1.46,1.43-2.9,1.43
			c-0.76,0-1.42-0.13-1.97-0.4c-0.56-0.27-0.97-0.62-1.26-1.08c-0.28-0.45-0.43-0.97-0.43-1.55c0-0.93,0.36-1.65,1.07-2.16
			c0.71-0.51,1.81-0.77,3.29-0.77h1.96c-0.06-1.04-0.75-1.56-2.08-1.56c-0.47,0-0.95,0.08-1.43,0.23c-0.48,0.15-0.89,0.36-1.23,0.62
			l-1.16-2.34c0.54-0.36,1.2-0.64,1.98-0.84c0.78-0.2,1.56-0.3,2.34-0.3C136.77,98.8,138.02,99.17,138.87,99.91z M133.01,97.16
			c-0.65-0.53-1-1.23-1.03-2.13h2.1c0.01,0.36,0.16,0.65,0.43,0.87c0.28,0.22,0.62,0.33,1.01,0.33c0.4,0,0.74-0.11,1.01-0.33
			c0.28-0.22,0.42-0.51,0.43-0.87h2.1c-0.04,0.89-0.38,1.6-1.03,2.13c-0.65,0.52-1.49,0.79-2.52,0.79
			C134.5,97.94,133.66,97.68,133.01,97.16z M136.07,106.47c0.3-0.19,0.52-0.48,0.65-0.85v-0.85h-1.48c-1,0-1.5,0.33-1.5,1
			c0,0.3,0.11,0.54,0.34,0.72c0.23,0.18,0.54,0.27,0.94,0.27C135.42,106.76,135.77,106.66,136.07,106.47z"/>
		<path class="st1" d="M152.29,98.96v9.81h-3.28v-1.05c-0.36,0.4-0.8,0.7-1.3,0.91c-0.51,0.21-1.04,0.31-1.61,0.31
			c-1.27,0-2.28-0.37-3.03-1.12c-0.75-0.75-1.13-1.87-1.13-3.37v-5.48h3.44v4.92c0,0.74,0.14,1.27,0.42,1.61
			c0.28,0.34,0.68,0.51,1.21,0.51c0.54,0,0.99-0.19,1.33-0.57c0.34-0.38,0.52-0.96,0.52-1.75v-4.72H152.29z"/>
	</g>
</g>
</svg>
