<?xml version="1.0" encoding="utf-8"?>
<!-- Generator: Adobe Illustrator 25.4.0, SVG Export Plug-In . SVG Version: 6.00 Build 0)  -->
<svg version="1.1" id="Layer_1" xmlns="http://www.w3.org/2000/svg" xmlns:xlink="http://www.w3.org/1999/xlink" x="0px" y="0px"
	 viewBox="0 0 320 111" style="enable-background:new 0 0 320 111;" xml:space="preserve">
<style type="text/css">
	.st0{fill:#E10A14;}
	.st1{fill:#1E1E1E;}
</style>
<g>
	<path class="st0" d="M117.42,89.1c9.56-6.59,23.01-16.94,30.64-27.65c6.09-8.55,8.85-17.02,8.44-25.89
		c-0.41-8.91-3.92-17.25-9.87-23.47c-9.7-10.14-21.95-11.12-25.34-11.25c-13.73-0.53-23.11,6.71-25.4,8.59
		c-2.5-2.1-10.43-8.22-22.2-8.68c-1.98-0.08-16.7-0.4-27.79,11.33c-8.73,9.23-9.72,20.11-9.87,23.46
		c-0.42,8.88,2.34,17.35,8.44,25.9c4.46,6.26,10.9,12.39,17.4,17.73c6.05,4.97,12.48,9.46,19.16,13.54l1.01,0.62v16.92h75.07V89.1
		H117.42z M62.64,49.19c-3.08-4.45-4.61-8.4-4.41-12.66c0.06-1.3,0.34-6,3.92-9.85c3.99-4.29,9.42-4.66,11.16-4.78
		c8.55-0.59,18.74,6.41,22.95,15.11c4.2-8.7,14.4-15.69,22.95-15.11c1.75,0.12,7.18,0.49,11.16,4.78c3.58,3.85,3.86,8.55,3.92,9.85
		c0.19,4.26-1.33,8.21-4.41,12.66c-9.27,13.39-32.51,29.58-33.62,29.58C95.15,78.77,71.91,62.58,62.64,49.19z"/>
	<g>
		<path class="st1" d="M1.51,16.44h20.57v72.72H1.51V16.44z"/>
	</g>
	<g>
		<path class="st1" d="M240.88,58.04c2.35,3.08,3.53,6.8,3.53,11.17c0,6.37-2.56,11.29-7.69,14.75c-5.13,3.46-12.54,5.19-22.23,5.19
			h-39.27V16.44h37.19c9.28,0,16.34,1.71,21.19,5.14c4.85,3.43,7.27,8.05,7.27,13.87c0,3.46-0.85,6.56-2.55,9.3
			c-1.7,2.74-4.1,4.9-7.22,6.49C235.27,52.69,238.53,54.96,240.88,58.04z M195.58,31.29v14.03h14.13c6.93,0,10.39-2.35,10.39-7.07
			c0-4.64-3.46-6.96-10.39-6.96H195.58z M223.64,66.93c0-4.92-3.6-7.38-10.8-7.38h-17.25V74.3h17.25
			C220.03,74.3,223.64,71.85,223.64,66.93z"/>
		<path class="st1" d="M266.7,85.78c-6.06-3.22-10.82-7.71-14.29-13.45c-3.46-5.75-5.19-12.26-5.19-19.53s1.73-13.78,5.19-19.53
			c3.46-5.75,8.22-10.23,14.29-13.45c6.06-3.22,12.9-4.83,20.52-4.83c6.65,0,12.64,1.18,17.97,3.53c5.33,2.36,9.77,5.75,13.3,10.18
			L305.4,40.54c-4.71-5.68-10.43-8.52-17.14-8.52c-3.95,0-7.46,0.87-10.54,2.6c-3.08,1.73-5.47,4.17-7.17,7.32
			c-1.7,3.15-2.55,6.77-2.55,10.86c0,4.09,0.85,7.71,2.55,10.86c1.7,3.15,4.09,5.59,7.17,7.32c3.08,1.73,6.6,2.6,10.54,2.6
			c6.72,0,12.43-2.84,17.14-8.52l13.09,11.84c-3.53,4.43-7.96,7.83-13.3,10.18c-5.33,2.35-11.32,3.53-17.97,3.53
			C279.6,90.61,272.76,89,266.7,85.78z"/>
	</g>
</g>
</svg>
