<svg id="Layer_1" data-name="Layer 1" xmlns="http://www.w3.org/2000/svg" viewBox="0 0 500 500"><defs><style>.cls-1{fill:#e20917;}</style></defs><path class="cls-1" d="M310.36,417.31l70.89-54.72c77.1-60.31,114.4-95.12,114.4-168.49v-1.24c0-30.54-8.48-57.06-23.8-78.28-42-58.23-116.39-56.46-126-56-51,2.32-85.81,29.83-98,40.48-11.3-10.31-43.93-37.24-92.5-40.48-6.25-.42-82.86-3.8-126,56C14,135.8,5.5,162.32,5.5,192.86v1.24c0,73.37,37.3,108.18,114.4,168.49L189,415.91V500H500V417.31Zm59.13-153.89c-11.5,12.28-26.84,25.73-46.69,42L250.57,364.6l-72.23-59.21c-54.71-44.77-75.23-68.39-75.23-104.45,0-37.31,23.63-56.58,58.45-56.58,34.19,0,56.57,18.65,88.91,58.44l.11-.22.1.22C283,163,305.39,144.36,339.59,144.36c34.81,0,58.45,19.27,58.45,56.58,0,23-8.34,40.91-28.55,62.48"/></svg>